<svg width="36" height="37" viewBox="0 0 36 37" fill="none" xmlns="http://www.w3.org/2000/svg">
<path d="M27.1987 21.4934C18.2395 19.4703 16.8518 18.0826 14.8287 9.12343C14.736 8.71395 14.3715 8.42236 13.9503 8.42236C13.5291 8.42236 13.1646 8.71395 13.072 9.12343C11.0479 18.0826 9.66109 19.4703 0.70197 21.4934C0.291588 21.587 0 21.9506 0 22.3718C0 22.793 0.291588 23.1565 0.70197 23.2501C9.66109 25.2742 11.0479 26.6619 13.072 35.6201C13.1646 36.0296 13.5291 36.3212 13.9503 36.3212C14.3715 36.3212 14.736 36.0296 14.8287 35.6201C16.8527 26.6619 18.2395 25.2742 27.1987 23.2501C27.609 23.1565 27.8997 22.793 27.8997 22.3718C27.8997 21.9506 27.6081 21.587 27.1987 21.4934Z" fill="url(#paint0_linear_457_2932)"/>
<path d="M35.2985 7.54576C30.5359 6.47031 29.8672 5.80164 28.7917 1.03994C28.6982 0.629555 28.3346 0.338867 27.9134 0.338867C27.4922 0.338867 27.1286 0.629555 27.035 1.03994C25.9596 5.80164 25.2909 6.47031 20.5292 7.54576C20.1188 7.63936 19.8281 8.00295 19.8281 8.42413C19.8281 8.84531 20.1188 9.20889 20.5292 9.30249C25.2909 10.3779 25.9596 11.0466 27.035 15.8092C27.1286 16.2187 27.4922 16.5103 27.9134 16.5103C28.3346 16.5103 28.6982 16.2187 28.7917 15.8092C29.8672 11.0466 30.5359 10.3779 35.2985 9.30249C35.708 9.20889 35.9995 8.84531 35.9995 8.42413C35.9995 8.00295 35.708 7.63936 35.2985 7.54576Z" fill="url(#paint1_linear_457_2932)"/>
<defs>
<linearGradient id="paint0_linear_457_2932" x1="13.9499" y1="8.42236" x2="13.9499" y2="36.3212" gradientUnits="userSpaceOnUse">
<stop stop-color="#F3F8FD"/>
<stop offset="1" stop-color="#007AFF"/>
</linearGradient>
<linearGradient id="paint1_linear_457_2932" x1="36" y1="-17" x2="27.9138" y2="16.5103" gradientUnits="userSpaceOnUse">
<stop stop-color="#007AFF"/>
<stop offset="1" stop-color="#EDD9FE"/>
</linearGradient>
</defs>
</svg>
